<?xml version="1.0" standalone="no"?>
<!DOCTYPE svg PUBLIC "-//W3C//DTD SVG 20010904//EN"
 "http://www.w3.org/TR/2001/REC-SVG-20010904/DTD/svg10.dtd">
<svg version="1.0" xmlns="http://www.w3.org/2000/svg"
 width="800.000000pt" height="800.000000pt" viewBox="0 0 800.000000 800.000000"
 preserveAspectRatio="xMidYMid meet">
<metadata>
Created by potrace 1.11, written by Peter Selinger 2001-2013
</metadata>
<g transform="translate(0.000000,800.000000) scale(0.100000,-0.100000)"
fill="#000000" stroke="none">
<path d="M3100 6224 c-92 -40 -116 -91 -135 -283 -2 -19 -6 -50 -9 -70 -6 -42
-13 -93 -21 -171 -3 -30 -8 -66 -10 -80 -2 -14 -7 -50 -10 -80 -7 -63 -10 -94
-24 -205 -6 -44 -13 -107 -17 -140 -3 -33 -7 -67 -9 -75 -1 -8 -6 -44 -9 -80
-7 -63 -33 -281 -51 -420 -2 -19 -7 -57 -10 -85 -3 -27 -10 -84 -15 -125 -5
-41 -12 -100 -15 -130 -4 -30 -8 -66 -10 -80 -2 -14 -7 -56 -11 -95 -3 -38 -8
-73 -10 -76 -2 -4 -6 -47 -8 -95 -7 -117 19 -176 99 -229 29 -19 48 -20 528
-22 274 0 501 -3 503 -6 2 -2 -11 -71 -30 -153 -19 -82 -37 -163 -39 -179 -3
-17 -8 -41 -12 -55 -3 -14 -9 -43 -14 -65 -5 -22 -18 -80 -29 -130 -12 -49
-23 -101 -26 -115 -2 -14 -52 -239 -110 -499 -58 -261 -106 -494 -106 -518 0
-53 33 -125 72 -158 70 -59 191 -54 250 11 13 16 194 325 300 514 14 25 76
133 138 240 62 107 124 215 138 240 14 25 87 153 162 285 76 132 147 256 158
275 10 19 81 143 157 275 76 132 146 255 157 274 10 18 64 112 119 208 56 96
110 195 121 220 34 78 12 183 -50 242 -55 51 -58 51 -567 51 -400 0 -475 2
-475 14 0 12 15 87 55 274 3 12 7 34 10 50 3 15 17 82 31 148 14 67 27 132 29
145 3 13 34 164 69 334 79 378 76 362 83 406 13 83 -58 197 -136 219 -22 6
-257 10 -606 10 -487 -1 -575 -3 -605 -16z"/>
<path d="M1165 5586 c-162 -39 -305 -181 -350 -349 -21 -79 -20 -2397 1 -2476
41 -152 148 -271 303 -333 l56 -23 956 -3 955 -3 28 123 c15 68 29 130 31 138
1 8 11 51 20 95 10 44 20 90 22 103 l5 22 -956 0 -956 0 0 1120 0 1120 550 0
c303 0 550 3 551 8 0 4 3 21 5 37 2 17 9 68 15 115 5 47 12 101 15 120 2 19 6
51 9 70 2 19 7 56 10 83 l5 47 -613 -1 c-439 -1 -626 -4 -662 -13z"/>
<path d="M4837 5518 c-10 -46 -20 -92 -22 -103 -3 -10 -7 -37 -11 -59 -3 -22
-7 -44 -10 -47 -2 -4 -6 -22 -9 -40 -3 -19 -12 -60 -19 -91 l-13 -58 823 0
824 0 0 -320 0 -320 160 0 160 0 0 -480 0 -480 -160 0 -160 0 0 -320 0 -320
-711 -2 -712 -3 -133 -233 c-74 -128 -134 -236 -134 -238 0 -3 404 -3 898 -2
l897 3 56 23 c158 63 264 182 304 340 9 33 15 64 14 69 -1 4 -1 52 0 106 l1
97 58 0 c110 0 194 49 239 139 17 34 18 83 18 821 0 745 -1 787 -19 822 -44
89 -130 138 -243 138 l-53 0 -1 103 c0 56 -3 116 -5 132 -21 138 -120 278
-243 344 -115 61 -91 59 -971 60 l-806 1 -17 -82z"/>
</g>
</svg>
